<?xml version="1.0" encoding="utf-8"?>
<!-- Generator: Adobe Illustrator 20.0.0, SVG Export Plug-In . SVG Version: 6.00 Build 0)  -->
<svg version="1.1" id="Layer_1" xmlns="http://www.w3.org/2000/svg" xmlns:xlink="http://www.w3.org/1999/xlink" x="0px" y="0px"
	 viewBox="0 0 338.146 133.342" enable-background="new 0 0 338.146 133.342" xml:space="preserve">
<g>
	<g>
		<path fill="#FFFFFF" d="M338.004,40.163c0.375-0.658-0.02-1.142-0.854-1.142c-4.349,0-10.053,0.011-14.584,0.011
			c-1.08,0-1.639,0.13-2.147,1.132c-1.671,3.206-22.055,33.752-25.848,39.683c-0.639,0.904-1.42,0.779-1.511-0.251
			c-0.383-3.523-3.427-7.572-8.22-9.51c-3.653-1.482-7.225-1.751-10.937-1.258c-6.704,0.9-12.677,4.439-17.927,8.426
			c-7.916,6.017-14.742,13.815-23.557,19.577c-4.813,3.135-11.401,5.871-15.81,1.788c-3.991-3.699-3.54-11.917,2.564-18.271
			c0.644-0.665,1.414-0.11,1.293,0.489c-0.575,2.875,0.134,5.732,2.313,7.736c2.665,2.386,6.475,2.658,9.738,1.064
			c3.85-1.907,6.112-5.59,6.772-9.771c1.021-6.485-3.971-12.207-10.218-12.664c-5.074-0.356-9.941,1.409-14.682,5.323
			c-2.377,1.971-3.729,3.428-5.784,6.354c-0.5,0.717-1.27,0.792-1.247-0.271c0.24-8.305-3.197-12.976-10.063-13.129
			c-5.327-0.125-11.02,2.763-15.458,6.302c-4.862,3.907-9.115,9.083-13.673,13.947c-0.568,0.598-1.064,0.571-1.222-0.592
			c-0.137-5.501-1.519-10.83-4.067-14.613c-0.9-1.318-2.795-1.969-4.388-1.078c-0.737,0.402-3.299,1.578-5.16,3.08
			c-0.925,0.761-1.283,1.863-0.879,3.275c2.461,8.218,1.918,17.564-1.414,25.457c-3.06,7.227-9.013,13.75-16.006,15.954
			c-4.606,1.461-9.4,0.746-12.362-3.338c-4.071-5.638-2.427-15.442,3.638-23.583c5.357-7.167,13.102-11.721,20.829-14.653
			c0.909-0.351,1.096-0.934,0.84-1.706c-0.422-1.272-1.089-3.001-1.365-3.791c-0.708-1.884-2.694-2.192-5.114-1.927
			c-5.613,0.653-10.679,2.576-15.682,5.254c-13.097,7.015-19.664,20.591-22.544,27.853c-1.384,3.489-2.571,5.667-4.103,7.596
			c-2.064,2.596-4.656,4.959-9.396,9.12c-0.429,0.383-0.749,1.18-0.388,1.918c0.484,1.004,2.95,4.482,3.644,4.793
			c0.774,0.381,1.669-0.149,2.026-0.409c3.318-2.247,7.284-5.809,9.229-8.227c0.68-0.827,1.379-0.479,1.74,0.778
			c1.813,6.466,6.56,11.745,13.12,13.952c12.011,4.051,24.471-1.813,33.872-12.019c5.978-6.487,8.134-10.659,10.423-13.495
			c3.88-4.811,11.54-15.572,20.66-22.48c3.345-2.546,7.304-4.489,9.295-3.199c1.596,1.034,2.114,3.441-0.45,8.103
			c-9.298,16.981-22.982,36.931-25.491,41.769c-0.457,0.84-0.059,1.5,0.82,1.5c4.866-0.023,9.69-0.012,14.107-0.012
			c0.737-0.036,1.064-0.37,1.432-0.888c7.136-11.172,13.853-21.804,21.052-32.796c0.402-0.648,0.774-0.146,0.79,0.137
			c0.149,2.55,0.776,6.04,2.288,8.33c2.72,4.234,6.578,6.055,10.855,6.081c3.404,0.039,5.124-0.477,8.793-1.847
			c2.987-1.108,5.384-2.562,7.224-3.877c1.075-0.746,1.263,0.503,1.235,0.694c-1.649,8.869,0.388,19.376,9.202,23.733
			c10.547,5.201,22.135-2.108,28.804-8.707c0.651-0.635,1.352-0.569,1.42,0.801c0.14,2.52,1.279,5.51,3.364,7.601
			c5.587,5.608,16.862,3.386,28.176-5.371c7.264-5.608,14.867-13.529,21.735-21.92c0.254-0.324,0.443-0.847-0.048-1.374
			c-1.044-1.094-2.558-2.347-3.594-3.311c-0.475-0.402-1.167-0.286-1.566,0.014c-7.039,6.693-13.374,14.326-22.532,20.641
			c-3.087,2.155-8.008,3.893-10.22,0.902c-0.861-1.16-0.763-2.769,0.087-4.877C293.541,108.314,335.81,43.96,338.004,40.163z
			 M282.131,94.132c0.085,0.493,0.728,0.97,1.358,1.196c0.221,0.082,0.345,0.244,0.094,0.76c-1.799,3.852-3.45,6.072-5.702,9.419
			c-2.071,3.092-4.405,5.507-7.232,7.825c-4.261,3.528-10.182,7.369-15.077,4.788c-2.174-1.13-3.114-4.17-3.071-6.635
			c0.114-6.926,3.185-14.038,8.873-21.027c6.937-8.538,14.605-12.967,19.637-10.547c5.206,2.484,3.544,8.512,1.215,13.244
			C282.051,93.522,282.039,93.833,282.131,94.132z"/>
		<path fill="#FFFFFF" d="M31.406,130.766c-15.76,0.114-29.645-9.629-31.237-26.491c-0.886-9.343,1.756-17.671,7.042-24.53
			c4.69-6.111,12.629-11.191,19.349-12.431c2.187-0.402,5.126-0.146,6.339,1.301c1.906,2.217,1.356,4.653-0.546,5.626
			c-5.128,2.617-11.296,7.097-14.347,13.216c-2.479,4.994-2.977,11.015,0.804,16.748c6.33,9.556,23.971,9.818,40.375-5.421
			c4.06-3.729,7.697-7.313,11.392-11.558c7.225-8.261,9.627-11.271,19.231-24.594c0.116-0.151,0.148-0.356,0.096-0.454
			c-0.078-0.169-0.214-0.217-0.493-0.235c-6.41,0.176-12.001,2.089-17.433,6.149c-1.564,1.14-3.815,0.979-4.802-0.521
			c-1.096-1.697-0.311-3.911,1.496-5.158c8.738-6.078,18.287-7.181,28.035-8.827c-0.007,0,0.678,0.034,1.237-0.708
			c4.001-5.135,7.024-9.77,11.289-14.965c4.299-5.27,9.855-10.109,14.098-13.744c5.921-5.094,9.718-6.806,13.577-8.907
			c1.016-0.53-0.13-1.167-0.438-1.167c-21.551-4.05-43.95-9.291-65.354-1.366c-14.821,5.532-21.315,17.287-18.191,25.14
			c2.221,5.571,9.549,6.476,16.408,3.121c5.699-2.793,10.969-7.291,14.707-13.084c2.092-3.215,6.499-0.895,4.121,4.69
			C81.9,47.316,69.933,58.991,55.358,59.484c-12.401,0.402-20.406-8.722-20.379-19.979C35.025,17.3,59.749,2.675,85.723,0.489
			c31.286-2.585,60.915,5.747,91.978,9.515c23.799,2.882,46.615,2.943,70.535-2.553c2.829-0.614,4.813,1.19,4.629,4.046
			c-0.235,4.13-3.432,8.104-11.31,12.403c-8.96,4.914-18.333,6.403-28.122,6.483c-23.674,0.197-45.726-9.03-68.544-13.988
			c0.034,0.998,0.29,2.19-0.548,2.82c-12.639,9.323-24.064,18.79-31.718,32.088c-0.258,0.306-0.117,0.6,0.329,0.569
			c6.644-0.352,12.618-0.525,18.822-1.02c1.082-0.091,1.123-0.361,1.026-1.153c-0.544-4.585,0.792-9.81,4.823-13.404
			c4.126-3.701,9.295-4.122,12.718-1.457c3.896,3.035,3.551,8.492,1.42,12.584c-2.169,4.154-5.747,6.373-9.186,7.451
			c0,0-0.719,0.158-0.616,0.813c0.137,1.048,4.82,3.644,5.22,4.334c0.386,0.658,0.189,1.678-0.525,2.459
			c-0.498,0.568-1.272,1.101-2.265,1.082c-0.806-0.016-1.295-0.294-2.318-0.849c-2.103-1.141-4.727-3.01-6.478-5.217
			c-0.598-0.745-0.9-0.761-2.391-0.681c-6.713,0.388-17.178,1.4-24.27,2.286c-1.717,0.214-1.97,0.534-2.324,1.13
			c-11.305,18.642-23.377,38.747-36.628,52.205C55.765,126.869,43.948,130.668,31.406,130.766z M139.137,47.928
			c0.178,0.957,0.552,1.141,0.984,1.06c2.153-0.431,4.512-2.203,5.904-4.254c1.274-1.861,1.87-4.547,0.608-5.624
			c-1.13-0.968-2.961-0.694-4.316,0.505C139.61,42.007,138.786,45.398,139.137,47.928z"/>
	</g>
	<g>
		<path fill="#FFFFFF" d="M163.933,43.535h2.194l1.825,13.073h-1.965l-0.263-2.193h-1.474l-0.246,2.193h-1.877L163.933,43.535z
			 M164.459,52.554h1.053l-0.298-2.492l-0.21-2.562l-0.246,2.562L164.459,52.554z"/>
		<path fill="#FFFFFF" d="M170.873,43.604h1.895v11.23h1.931v1.772h-3.826V43.604z"/>
		<path fill="#FFFFFF" d="M177.638,43.604h1.895v11.23h1.931v1.772h-3.826V43.604z"/>
		<path fill="#FFFFFF" d="M183.316,49.904h2.79v1.807h-2.79V49.904z"/>
		<path fill="#FFFFFF" d="M189.148,43.604h2.036l1.018,4.633l0.351,1.825v-6.458h1.79v13.003h-1.808l-1.263-5.562l-0.351-1.667
			v7.229h-1.772V43.604z"/>
		<path fill="#FFFFFF" d="M197.547,43.604h4.001v1.843h-2.106v3.632h2.071v1.825h-2.071v3.931h2.124v1.772h-4.019V43.604z"/>
		<path fill="#FFFFFF" d="M204.487,43.604h1.965l0.438,5.756l0.123,2.439l0.175-2.439l0.544-5.756h1.649l0.527,5.791l0.158,2.404
			l0.123-2.386l0.456-5.809h1.825l-1.263,13.073h-1.913l-0.649-5.37l-0.158-1.965l-0.158,1.965l-0.614,5.37h-2L204.487,43.604z"/>
		<path fill="#FFFFFF" d="M219.56,43.604h4.001v1.843h-2.106v3.632h2.071v1.825h-2.071v3.931h2.124v1.772h-4.019V43.604z"/>
		<path fill="#FFFFFF" d="M226.605,43.604h2.036l1.018,4.633l0.351,1.825v-6.458h1.79v13.003h-1.808l-1.263-5.562l-0.351-1.667
			v7.229h-1.772V43.604z"/>
		<path fill="#FFFFFF" d="M235.004,43.604h2.667c0.982,0,1.579,0.229,1.983,0.807c0.562,0.86,0.562,2.281,0.562,5.686
			c0,3.545,0,4.983-0.632,5.791c-0.386,0.544-0.983,0.719-1.913,0.719h-2.667V43.604z M237.46,54.94c0.86,0,0.86-0.597,0.86-4.808
			c0-4.176,0-4.791-0.86-4.791h-0.562v9.599H237.46z"/>
		<path fill="#FFFFFF" d="M243.293,43.604h4.001v1.843h-2.106v3.632h2.071v1.825h-2.071v3.931h2.124v1.772h-4.019V43.604z"/>
		<path fill="#FFFFFF" d="M251.919,43.535h2.194l1.825,13.073h-1.965l-0.263-2.193h-1.474l-0.246,2.193h-1.877L251.919,43.535z
			 M252.446,52.554h1.053l-0.298-2.492l-0.21-2.562l-0.246,2.562L252.446,52.554z"/>
		<path fill="#FFFFFF" d="M257.839,43.604h1.948l0.719,6.528l0.246,2.808l0.229-2.808l0.702-6.528h1.913l-1.702,13.073h-2.351
			L257.839,43.604z"/>
		<path fill="#FFFFFF" d="M266.919,56.046c-0.667-0.842-0.702-2.387-0.702-5.949c0-3.439,0.035-5.001,0.667-5.861
			c0.386-0.526,1.053-0.737,2.018-0.737c0.965,0,1.632,0.21,2,0.702c0.667,0.86,0.667,2.404,0.667,5.896
			c0,3.755,0,5.229-0.685,6.019c-0.368,0.438-1.018,0.597-1.983,0.597C267.955,56.713,267.288,56.519,266.919,56.046z
			 M269.657,50.132c0-4.439,0-4.738-0.755-4.738c-0.754,0-0.754,0.298-0.754,4.738c0,4.475,0,4.773,0.754,4.773
			C269.657,54.905,269.657,54.607,269.657,50.132z"/>
		<path fill="#FFFFFF" d="M274.602,53.045v-9.441h1.913v9.476c0,1.456,0.017,1.842,0.702,1.842s0.72-0.386,0.72-1.842v-9.476h1.842
			v9.441c0,2.386-0.141,3.703-2.597,3.667C274.76,56.713,274.602,55.467,274.602,53.045z"/>
		<path fill="#FFFFFF" d="M282.953,43.604h2.615c2.071,0,2.334,1.386,2.334,4.019c0,2.123-0.123,3.264-1.036,3.878l0.948,5.106
			h-1.843l-0.86-4.667h-0.315v4.667h-1.843V43.604z M285.322,50.167c0.684,0,0.702-0.632,0.702-2.404
			c0-1.825-0.018-2.369-0.702-2.369h-0.526v4.773H285.322z"/>
	</g>
</g>
</svg>
