<?xml version="1.0" encoding="utf-8"?>
<!-- Generator: Adobe Illustrator 20.0.0, SVG Export Plug-In . SVG Version: 6.00 Build 0)  -->
<svg version="1.1" id="Layer_1" xmlns="http://www.w3.org/2000/svg" xmlns:xlink="http://www.w3.org/1999/xlink" x="0px" y="0px"
	 viewBox="0 0 107.907 17.964" enable-background="new 0 0 107.907 17.964" xml:space="preserve">
<path fill="#004F83" d="M25.15-0.862c-14.568,0-26.245,4.366-26.245,9.841c0,5.442,11.774,9.842,26.245,9.842
	c14.472,0,26.246-4.415,26.246-9.842C51.396,3.552,39.622-0.862,25.15-0.862"/>
<path fill="#FFFFFF" d="M40.569,6.155c0.034-0.06-0.001-0.103-0.077-0.103c-0.395,0-0.914,0.001-1.326,0.001
	c-0.098,0-0.149,0.012-0.195,0.103c-0.152,0.292-2.006,3.07-2.351,3.609c-0.058,0.082-0.129,0.071-0.137-0.023
	c-0.035-0.321-0.312-0.689-0.747-0.865c-0.332-0.135-0.657-0.159-0.995-0.114c-0.61,0.082-1.152,0.403-1.63,0.766
	c-0.719,0.547-1.341,1.256-2.142,1.78c-0.438,0.285-1.037,0.534-1.438,0.163c-0.363-0.336-0.322-1.083,0.233-1.662
	c0.059-0.06,0.129-0.01,0.118,0.045c-0.052,0.262,0.012,0.521,0.21,0.703c0.242,0.217,0.589,0.242,0.886,0.097
	c0.35-0.174,0.556-0.509,0.615-0.889c0.093-0.59-0.361-1.11-0.929-1.152c-0.461-0.033-0.904,0.128-1.335,0.484
	c-0.216,0.18-0.339,0.312-0.526,0.578c-0.046,0.066-0.116,0.072-0.114-0.024c0.022-0.755-0.291-1.18-0.915-1.194
	c-0.485-0.012-1.003,0.251-1.406,0.573c-0.442,0.355-0.829,0.826-1.243,1.268c-0.052,0.055-0.097,0.052-0.112-0.053
	c-0.012-0.5-0.138-0.985-0.37-1.329c-0.082-0.12-0.255-0.179-0.399-0.098c-0.067,0.037-0.3,0.144-0.469,0.28
	c-0.084,0.069-0.117,0.17-0.08,0.298c0.223,0.747,0.174,1.597-0.129,2.315c-0.278,0.657-0.819,1.25-1.455,1.451
	c-0.419,0.133-0.855,0.067-1.125-0.304c-0.37-0.513-0.22-1.404,0.331-2.145c0.487-0.651,1.191-1.066,1.894-1.333
	c0.083-0.032,0.099-0.085,0.076-0.155c-0.038-0.116-0.099-0.273-0.124-0.345c-0.064-0.171-0.245-0.199-0.465-0.176
	c-0.51,0.06-0.971,0.235-1.426,0.478c-1.191,0.638-1.788,1.873-2.05,2.533c-0.126,0.317-0.234,0.516-0.373,0.69
	c-0.188,0.236-0.423,0.451-0.854,0.83c-0.039,0.034-0.068,0.107-0.035,0.174c0.044,0.091,0.268,0.407,0.331,0.436
	c0.07,0.034,0.152-0.014,0.184-0.037c0.302-0.205,0.663-0.529,0.839-0.749c0.062-0.075,0.126-0.044,0.159,0.071
	c0.164,0.588,0.596,1.068,1.193,1.269c1.092,0.368,2.225-0.164,3.08-1.093c0.543-0.59,0.74-0.969,0.948-1.227
	c0.353-0.438,1.049-1.416,1.879-2.045c0.304-0.231,0.664-0.408,0.845-0.291c0.145,0.094,0.192,0.313-0.041,0.736
	c-0.846,1.545-2.09,3.359-2.318,3.799c-0.042,0.077-0.005,0.137,0.074,0.137c0.443-0.002,0.882-0.001,1.283-0.001
	c0.067-0.003,0.096-0.034,0.13-0.081c0.649-1.016,1.259-1.983,1.914-2.983c0.037-0.059,0.07-0.013,0.071,0.013
	c0.014,0.232,0.071,0.549,0.209,0.757c0.247,0.385,0.598,0.551,0.987,0.553c0.309,0.003,0.466-0.044,0.8-0.168
	c0.271-0.101,0.49-0.233,0.657-0.353c0.098-0.067,0.115,0.046,0.112,0.063c-0.149,0.806,0.035,1.762,0.837,2.158
	c0.96,0.473,2.013-0.192,2.62-0.792c0.059-0.058,0.123-0.052,0.128,0.073c0.013,0.229,0.117,0.501,0.306,0.692
	c0.508,0.51,1.534,0.307,2.562-0.489c0.661-0.51,1.352-1.23,1.977-1.993c0.023-0.03,0.04-0.077-0.004-0.125
	c-0.095-0.099-0.233-0.213-0.327-0.301c-0.043-0.037-0.106-0.026-0.142,0.001c-0.64,0.609-1.216,1.303-2.049,1.877
	c-0.281,0.196-0.728,0.354-0.929,0.082c-0.078-0.106-0.069-0.252,0.008-0.443C36.525,12.353,40.37,6.501,40.569,6.155
	 M35.488,11.063c0.008,0.045,0.066,0.088,0.123,0.109c0.02,0.008,0.031,0.022,0.009,0.069c-0.163,0.35-0.314,0.552-0.518,0.857
	c-0.188,0.281-0.4,0.5-0.658,0.712c-0.388,0.32-0.926,0.67-1.371,0.435c-0.198-0.102-0.283-0.379-0.28-0.603
	c0.01-0.629,0.29-1.276,0.807-1.912c0.631-0.776,1.328-1.179,1.786-0.959c0.473,0.226,0.322,0.774,0.11,1.204
	C35.481,11.008,35.48,11.036,35.488,11.063"/>
<path fill="#FFFFFF" d="M12.687,14.395c-1.434,0.01-2.696-0.876-2.841-2.409c-0.081-0.85,0.159-1.607,0.64-2.231
	c0.427-0.556,1.149-1.018,1.76-1.131c0.199-0.036,0.466-0.013,0.577,0.119c0.173,0.202,0.123,0.423-0.049,0.511
	c-0.466,0.238-1.028,0.646-1.305,1.202c-0.225,0.454-0.271,1.002,0.073,1.523c0.575,0.869,2.179,0.893,3.671-0.493
	c0.37-0.339,0.7-0.665,1.036-1.051c0.657-0.751,0.875-1.025,1.749-2.236c0.01-0.014,0.013-0.033,0.009-0.041
	C18,8.142,17.988,8.138,17.962,8.136c-0.583,0.016-1.091,0.19-1.585,0.559c-0.142,0.103-0.347,0.089-0.436-0.048
	c-0.099-0.154-0.028-0.355,0.136-0.468c0.794-0.553,1.663-0.653,2.55-0.803c0,0,0.062,0.003,0.112-0.065
	c0.364-0.467,0.639-0.888,1.027-1.361c0.391-0.479,0.896-0.919,1.282-1.25c0.538-0.463,0.884-0.619,1.235-0.81
	c0.092-0.048-0.012-0.106-0.04-0.106c-1.96-0.368-3.997-0.845-5.944-0.124c-1.348,0.503-1.938,1.572-1.654,2.286
	c0.202,0.506,0.868,0.589,1.492,0.284c0.518-0.254,0.997-0.663,1.337-1.19c0.19-0.292,0.591-0.081,0.374,0.427
	c-0.57,1.338-1.657,2.4-2.983,2.445c-1.128,0.037-1.856-0.793-1.853-1.817c0.004-2.019,2.253-3.349,4.615-3.548
	c2.845-0.235,5.54,0.522,8.365,0.865c2.164,0.262,4.239,0.267,6.414-0.232c0.257-0.056,0.438,0.109,0.421,0.368
	c-0.022,0.376-0.312,0.738-1.029,1.128c-0.815,0.447-1.667,0.582-2.558,0.59c-2.153,0.017-4.158-0.821-6.233-1.272
	c0.003,0.091,0.026,0.199-0.05,0.256c-1.149,0.848-2.188,1.709-2.884,2.918c-0.023,0.028-0.01,0.055,0.03,0.052
	c0.604-0.032,1.147-0.048,1.712-0.092c0.098-0.009,0.102-0.033,0.094-0.105c-0.05-0.417,0.071-0.892,0.438-1.219
	c0.375-0.336,0.846-0.375,1.157-0.133c0.355,0.276,0.323,0.772,0.13,1.144c-0.198,0.378-0.523,0.579-0.836,0.678
	c0,0-0.065,0.015-0.056,0.074c0.012,0.095,0.438,0.331,0.475,0.394c0.035,0.06,0.017,0.153-0.048,0.224
	c-0.045,0.052-0.116,0.1-0.206,0.098c-0.073-0.001-0.117-0.027-0.211-0.077c-0.191-0.103-0.43-0.274-0.589-0.474
	c-0.055-0.067-0.082-0.069-0.218-0.062c-0.61,0.035-1.562,0.127-2.207,0.207c-0.156,0.02-0.179,0.049-0.212,0.103
	c-1.028,1.695-2.126,3.524-3.331,4.748C14.902,14.04,13.828,14.386,12.687,14.395 M22.484,6.862c0.016,0.087,0.05,0.104,0.089,0.096
	c0.196-0.039,0.41-0.201,0.537-0.387c0.116-0.169,0.17-0.414,0.055-0.511c-0.103-0.088-0.269-0.063-0.393,0.046
	C22.527,6.323,22.452,6.632,22.484,6.862"/>
<path fill="#FFFFFF" d="M25.15,17.964C11.26,17.964,0,13.943,0,8.982C0,4.021,11.26,0,25.15,0c13.889,0,25.148,4.021,25.148,8.982
	C50.297,13.943,39.038,17.964,25.15,17.964 M25.15,0.747c-13.402,0-24.265,3.703-24.265,8.235s10.863,8.236,24.265,8.236
	c13.402,0,24.264-3.704,24.264-8.236S38.551,0.747,25.15,0.747"/>
<path fill="#FFFFFF" d="M57.24,8.972c0-2.369,1.237-3.376,3.447-3.376c1.326,0,2.13,0.389,2.651,0.928l-0.99,0.998
	c-0.336-0.318-0.769-0.601-1.671-0.601c-1.431,0-1.988,0.707-1.988,2.068c0,1.432,0.389,2.139,1.971,2.139
	c1.273,0,1.644-0.424,1.644-1.343V9.643h-1.83V8.441h3.261v1.07c0,1.864-0.742,2.837-3.146,2.837
	C57.973,12.348,57.24,11.146,57.24,8.972"/>
<path fill="#FFFFFF" d="M64.282,9.741c0-1.679,0.733-2.607,2.616-2.607c1.882,0,2.607,0.928,2.607,2.607
	c0,1.68-0.725,2.607-2.607,2.607C65.015,12.348,64.282,11.42,64.282,9.741 M68.117,9.776c0-0.849-0.265-1.379-1.22-1.379
	c-0.963,0-1.219,0.53-1.219,1.379c0,0.849,0.256,1.387,1.219,1.387C67.852,11.163,68.117,10.625,68.117,9.776"/>
<polygon fill="#FFFFFF" points="71.989,5.702 76.753,5.702 76.753,7.01 73.439,7.01 73.439,8.415 76.665,8.415 76.665,9.706 
	73.439,9.706 73.439,12.251 71.989,12.251 "/>
<path fill="#FFFFFF" d="M77.47,9.918V7.249h1.387v2.695c0,0.698,0.018,1.184,1.008,1.184c0.981,0,0.998-0.495,0.998-1.193V7.249
	h1.361v2.66c0,1.714-0.46,2.422-2.368,2.422C77.947,12.331,77.47,11.632,77.47,9.918"/>
<path fill="#FFFFFF" d="M82.853,7.328l1.078-0.08l0.142,0.548c0.212-0.318,0.822-0.574,1.599-0.601v1.326
	C84.497,8.53,84.24,8.989,84.24,9.776v2.475h-1.387V7.328z"/>
<path fill="#FFFFFF" d="M86.008,7.249h0.884l0.238-1.22l1.078-0.221v1.441h1.184v1.184h-1.184v2.06c0,0.389,0.053,0.601,0.645,0.601
	h0.539v1.158c-0.203,0.017-0.574,0.017-0.822,0.017c-1.352,0-1.741-0.459-1.741-1.573V8.432h-0.822V7.249z"/>
<path fill="#FFFFFF" d="M90.03,5.393h1.379v2.192c0.203-0.221,0.681-0.45,1.627-0.45c1.511,0,1.794,0.839,1.794,2.086v3.031H93.45
	V9.493c0-0.61-0.07-1.052-0.91-1.052c-0.964,0-1.123,0.451-1.123,1.114v2.696H90.03V5.393z"/>
<path fill="#FFFFFF" d="M95.422,9.741c0-1.397,0.459-2.607,2.598-2.607c2.201,0,2.271,1.467,2.228,3.137h-3.482
	c0.08,0.601,0.371,0.954,1.263,0.954c0.769,0,1.202-0.185,1.573-0.459l0.699,0.901c-0.645,0.486-1.281,0.68-2.272,0.68
	C95.864,12.348,95.422,11.164,95.422,9.741 M96.765,9.281h2.218c-0.035-0.575-0.151-0.99-1.008-0.99S96.836,8.671,96.765,9.281"/>
<path fill="#FFFFFF" d="M100.902,7.328l1.078-0.08l0.142,0.548c0.212-0.318,0.822-0.574,1.599-0.601v1.326
	c-1.175,0.009-1.432,0.468-1.432,1.255v2.475h-1.387V7.328z"/>
</svg>
