<?xml version="1.0" encoding="utf-8"?>
<!-- Generator: Adobe Illustrator 20.0.0, SVG Export Plug-In . SVG Version: 6.00 Build 0)  -->
<svg version="1.1" id="Layer_1" xmlns="http://www.w3.org/2000/svg" xmlns:xlink="http://www.w3.org/1999/xlink" x="0px" y="0px"
	 viewBox="0 0 170.097 38.951" enable-background="new 0 0 170.097 38.951" xml:space="preserve">
<g>
	<path fill="#FFFFFF" d="M0,0.362h9.208c8.276,0,10.604,3.776,10.604,12.053c0,8.225-2.276,12.259-10.552,12.259H5.328v14.019H0
		V0.362z M9.208,19.76c4.19,0,5.38-1.913,5.38-7.293c0-5.483-1.19-7.19-5.432-7.19H5.328V19.76H9.208z"/>
	<path fill="#FFFFFF" d="M32.695,23.847h-0.311H28.66v14.846h-5.276V0.362h8.949c8.121,0,10.604,3.518,10.604,11.38
		c0,5.328-1.242,9.053-5.225,10.915l5.018,16.035h-5.535L32.695,23.847z M32.333,18.984c4.293,0,5.38-2.018,5.38-6.932
		c0-4.966-1.086-6.776-5.432-6.776H28.66v13.708H32.333z"/>
	<path fill="#FFFFFF" d="M46.871,0.362h16.915V5.38H52.25v11.225h11.018v5.018H52.25v12.156h11.535v4.914H46.871V0.362z"/>
	<path fill="#FFFFFF" d="M65.392,37.244l2.225-4.552c1.81,0.879,3.776,1.345,6.466,1.345c2.689,0,4.552-1.241,4.552-3.983
		c0-2.224-1.241-4.138-5.897-9.828c-4.448-5.432-6.207-7.759-6.207-11.639C66.53,3.983,69.013,0,75.841,0
		c3.259,0,5.276,0.311,7.552,1.087l-1.758,4.862c-1.5-0.518-3.518-0.88-5.69-0.88c-2.793,0-4.19,1.396-4.19,3.569
		c0,1.966,0.621,2.793,5.069,8.276c5.587,6.828,7.035,8.949,7.035,13.242c0,5.018-2.897,8.794-9.621,8.794
		C70.151,38.951,67.306,38.123,65.392,37.244z"/>
	<path fill="#FFFFFF" d="M87.74,0.362h16.915V5.38H93.12v11.225h11.018v5.018H93.12v12.156h11.535v4.914H87.74V0.362z"/>
	<path fill="#FFFFFF" d="M108.589,0.362h5.586l7.552,19.967l1.862,4.966V0.362h4.966v38.33h-4.862l-8.38-21.726l-1.707-4.552v26.277
		h-5.018V0.362z"/>
	<path fill="#FFFFFF" d="M135.749,36.364c-2.948-2.948-3.414-8.328-3.414-16.862c0-8.328,0.362-13.656,3.311-16.708
		C137.249,1.035,139.784,0,143.353,0c2.948,0,4.707,0.362,6.673,1.087l-1.914,4.914c-1.241-0.466-2.845-0.776-4.448-0.776
		c-5.121,0-5.897,3.207-5.897,14.381c0,11.069,0.776,14.276,5.897,14.276c1.914,0,3.207-0.362,4.655-0.982l1.914,4.759
		c-1.862,0.775-3.776,1.293-6.828,1.293C139.887,38.951,137.456,37.968,135.749,36.364z"/>
	<path fill="#FFFFFF" d="M153.183,0.362h16.914V5.38h-11.535v11.225h11.019v5.018h-11.019v12.156h11.535v4.914h-16.914V0.362z"/>
</g>
</svg>
