<?xml version="1.0" encoding="utf-8"?>
<!-- Generator: Adobe Illustrator 20.0.0, SVG Export Plug-In . SVG Version: 6.00 Build 0)  -->
<svg version="1.1" id="Layer_1" xmlns="http://www.w3.org/2000/svg" xmlns:xlink="http://www.w3.org/1999/xlink" x="0px" y="0px"
	 viewBox="0 0 53.49 38.744" enable-background="new 0 0 53.49 38.744" xml:space="preserve">
<g>
	<path fill="#FFFFFF" d="M3.052,27.468H0v-4.966h3.621l0.518-4.862H0v-4.966h4.655l1.346-12.26h4.966l-1.346,12.26h3.311
		l1.397-12.26h4.914l-1.397,12.26h3.208v4.966h-3.725l-0.518,4.862h4.242v4.966h-4.812l-1.241,11.276h-4.914l1.241-11.276H7.966
		L6.776,38.744H1.811L3.052,27.468z M12.104,22.968l0.725-5.794H8.794l-0.673,5.794H12.104z"/>
	<path fill="#FFFFFF" d="M27.832,5.432h-4.293V0.414h9.569v38.33h-5.276V5.432z"/>
	<path fill="#FFFFFF" d="M36.938,34.296l9.725-20.174c0.828-1.759,1.449-3.725,1.449-5.535c0-2.069-0.932-3.673-3.828-3.673
		c-2.121,0-3.932,0.466-5.535,1.19l-1.966-4.553C38.852,0.621,41.438,0,44.801,0c6.414,0,8.689,2.846,8.689,7.604
		c0,3.052-0.982,5.741-2.431,8.794l-8.535,17.639h10.862v4.707H36.938V34.296z"/>
</g>
</svg>
