<?xml version="1.0" encoding="utf-8"?>
<!-- Generator: Adobe Illustrator 20.0.0, SVG Export Plug-In . SVG Version: 6.00 Build 0)  -->
<svg version="1.1" id="Layer_1" xmlns="http://www.w3.org/2000/svg" xmlns:xlink="http://www.w3.org/1999/xlink" x="0px" y="0px"
	 viewBox="0 0 147.075 123.911" enable-background="new 0 0 147.075 123.911" xml:space="preserve">
<g>
	<g>
		<path fill="#FFFFFF" d="M0.496,109.684l31.102-64.52c2.647-5.625,4.633-11.912,4.633-17.702c0-6.617-2.979-11.746-12.243-11.746
			c-6.782,0-12.572,1.489-17.701,3.806L0,4.963C6.617,1.985,14.889,0,25.643,0c20.514,0,27.793,9.099,27.793,24.318
			c0,9.761-3.144,18.364-7.775,28.124l-27.297,56.414h34.741v15.055H0.496V109.684z"/>
		<path fill="#FFFFFF" d="M65.35,101.412h19.024v22.499H65.35V101.412z"/>
		<path fill="#FFFFFF" d="M94.136,109.684l31.102-64.52c2.647-5.625,4.633-11.912,4.633-17.702c0-6.617-2.979-11.746-12.243-11.746
			c-6.782,0-12.572,1.489-17.701,3.806L93.64,4.963C100.257,1.985,108.528,0,119.282,0c20.514,0,27.793,9.099,27.793,24.318
			c0,9.761-3.144,18.364-7.775,28.124l-27.297,56.414h34.741v15.055H94.136V109.684z"/>
	</g>
</g>
</svg>
