<?xml version="1.0" encoding="utf-8"?>
<!-- Generator: Adobe Illustrator 20.0.0, SVG Export Plug-In . SVG Version: 6.00 Build 0)  -->
<svg version="1.1" id="Layer_1" xmlns="http://www.w3.org/2000/svg" xmlns:xlink="http://www.w3.org/1999/xlink" x="0px" y="0px"
	 viewBox="0 0 253.894 19.271" enable-background="new 0 0 253.894 19.271" xml:space="preserve">
<g>
	<path fill="#FFFFFF" d="M3.649,2.975H0V0.55h9.947v2.425H6.298V19.07H3.649V2.975z"/>
	<path fill="#FFFFFF" d="M11.35,0.55h2.599v7.674h4.699V0.55h2.6V19.07h-2.6v-8.248h-4.699v8.248H11.35V0.55z"/>
	<path fill="#FFFFFF" d="M23.549,0.55h8.173v2.425h-5.574v5.424h5.324v2.424h-5.324v5.874h5.574v2.374h-8.173V0.55z"/>
	<path fill="#FFFFFF" d="M36.274,16.921l4.699-9.747c0.4-0.851,0.7-1.8,0.7-2.675c0-1-0.45-1.774-1.849-1.774
		c-1.025,0-1.9,0.225-2.675,0.575l-0.95-2.2c1-0.449,2.25-0.749,3.874-0.749c3.1,0,4.199,1.374,4.199,3.674
		c0,1.475-0.475,2.774-1.175,4.249l-4.124,8.522h5.249v2.274h-7.948V16.921z"/>
	<path fill="#FFFFFF" d="M46.074,15.671h2.875v3.399h-2.875V15.671z"/>
	<path fill="#FFFFFF" d="M50.424,16.921l4.699-9.747c0.4-0.851,0.7-1.8,0.7-2.675c0-1-0.45-1.774-1.849-1.774
		c-1.025,0-1.9,0.225-2.674,0.575l-0.95-2.2c1-0.449,2.25-0.749,3.874-0.749c3.1,0,4.199,1.374,4.199,3.674
		c0,1.475-0.475,2.774-1.175,4.249l-4.124,8.522h5.249v2.274h-7.948V16.921z"/>
	<path fill="#FFFFFF" d="M60.324,15.896V0h2.524v15.597c0,1.024,0.075,1.225,1.075,1.225h0.1v2.249
		c-0.075,0.025-0.4,0.025-0.5,0.025C60.974,19.096,60.324,18.32,60.324,15.896z"/>
	<path fill="#FFFFFF" d="M72.324,0.55h8.172v2.425h-5.573v5.424h5.323v2.424h-5.323v5.874h5.573v2.374h-8.172V0.55z"/>
	<path fill="#FFFFFF" d="M82.398,0.55h2.699l3.649,9.647l0.899,2.399V0.55h2.399V19.07h-2.35L85.647,8.573l-0.824-2.199V19.07
		h-2.425V0.55z"/>
	<path fill="#FFFFFF" d="M94.349,0.55h4.248c2,0,3.375,0.476,4.225,1.375c1.35,1.425,1.475,3.999,1.475,7.873
		c0,4.099-0.125,6.673-1.6,8.048c-0.85,0.825-2.199,1.225-4.149,1.225h-4.198V0.55z M98.622,16.796c2.85,0,3.024-1.475,3.024-6.973
		c0-5.399-0.2-6.898-3.074-6.898h-1.625v13.871H98.622z"/>
	<path fill="#FFFFFF" d="M106.098,0.55h8.173v2.425h-5.573v5.424h5.323v2.424h-5.323v5.874h5.573v2.374h-8.173V0.55z"/>
	<path fill="#FFFFFF" d="M119.122,0.5h2.949l4.05,18.57h-2.675l-0.7-3.499h-4.398l-0.7,3.499h-2.549L119.122,0.5z M122.196,13.197
		l-1.199-5.999l-0.45-2.499l-0.45,2.499l-1.199,5.999H122.196z"/>
	<path fill="#FFFFFF" d="M125.773,0.55h2.649l2.249,10.798l0.575,3.049l0.575-2.999l2.249-10.848h2.6l-4.049,18.57h-2.825
		L125.773,0.55z"/>
	<path fill="#FFFFFF" d="M138.898,17.946c-1.575-1.525-1.675-4.274-1.675-8.148c0-3.799,0.1-6.498,1.55-8.048
		c0.8-0.85,2.049-1.399,3.849-1.399s3.049,0.55,3.849,1.374c1.45,1.55,1.575,4.274,1.575,8.073c0,3.899-0.125,6.648-1.675,8.148
		c-0.825,0.774-2.05,1.249-3.749,1.249S139.723,18.721,138.898,17.946z M145.396,9.848c0-5.148-0.25-6.998-2.774-6.998
		s-2.774,1.85-2.774,6.998s0.25,6.948,2.774,6.948S145.396,14.996,145.396,9.848z"/>
	<path fill="#FFFFFF" d="M150.923,18.171c-1.1-1-1.274-2.624-1.274-4.649V0.55h2.625v12.872c0,2.374,0.425,3.424,2.349,3.424
		c1.899,0,2.35-1.024,2.35-3.424V0.55h2.55v12.972c0,1.975-0.125,3.625-1.2,4.624c-0.75,0.7-1.975,1.125-3.749,1.125
		C152.873,19.271,151.673,18.87,150.923,18.171z"/>
	<path fill="#FFFFFF" d="M166.222,11.897h-0.149h-1.8v7.173h-2.549V0.55h4.323c3.924,0,5.124,1.7,5.124,5.499
		c0,2.574-0.6,4.374-2.524,5.273l2.425,7.748h-2.675L166.222,11.897z M166.047,9.548c2.075,0,2.6-0.975,2.6-3.35
		c0-2.399-0.524-3.273-2.624-3.273h-1.75v6.623H166.047z"/>
	<path fill="#FFFFFF" d="M179.072,2.975h-3.648V0.55h9.947v2.425h-3.649V19.07h-2.649V2.975z"/>
	<path fill="#FFFFFF" d="M186.923,0.55h2.6V19.07h-2.6V0.55z"/>
	<path fill="#FFFFFF" d="M194.697,2.975h-3.649V0.55h9.947v2.425h-3.648V19.07h-2.649V2.975z"/>
	<path fill="#FFFFFF" d="M204.122,0.5h2.949l4.049,18.57h-2.675l-0.699-3.499h-4.399l-0.699,3.499h-2.55L204.122,0.5z
		 M207.196,13.197l-1.2-5.999l-0.449-2.499l-0.45,2.499l-1.2,5.999H207.196z"/>
	<path fill="#FFFFFF" d="M212.522,0.55h2.699l3.649,9.647l0.899,2.399V0.55h2.399V19.07h-2.35l-4.049-10.497l-0.824-2.199V19.07
		h-2.425V0.55z"/>
	<path fill="#FFFFFF" d="M224.623,0.55h2.599V19.07h-2.599V0.55z"/>
	<path fill="#FFFFFF" d="M230.847,18.171c-1.1-1-1.274-2.624-1.274-4.649V0.55h2.625v12.872c0,2.374,0.425,3.424,2.349,3.424
		c1.899,0,2.35-1.024,2.35-3.424V0.55h2.55v12.972c0,1.975-0.125,3.625-1.2,4.624c-0.75,0.7-1.975,1.125-3.749,1.125
		C232.797,19.271,231.597,18.87,230.847,18.171z"/>
	<path fill="#FFFFFF" d="M241.647,0.55h3.299l2.199,10.173l0.625,3.174l0.6-3.148l2.274-10.198h3.249V19.07h-2.474V6.299l-0.5,2.475
		l-2.225,10.297h-2.05l-2.225-10.297l-0.499-2.575V19.07h-2.274V0.55z"/>
</g>
</svg>
