<?xml version="1.0" encoding="utf-8"?>
<!-- Generator: Adobe Illustrator 20.0.0, SVG Export Plug-In . SVG Version: 6.00 Build 0)  -->
<svg version="1.1" id="Layer_1" xmlns="http://www.w3.org/2000/svg" xmlns:xlink="http://www.w3.org/1999/xlink" x="0px" y="0px"
	 viewBox="0 0 287.585 39.003" enable-background="new 0 0 287.585 39.003" xml:space="preserve">
<g>
	<path fill="#FFFFFF" d="M0,0.414h16.915v5.018H5.38v11.225h11.018v5.018H5.38V33.83h11.535v4.914H0V0.414z"/>
	<path fill="#FFFFFF" d="M29.953,24.571L24.47,38.744h-5.535l8.328-20.64l-7.397-17.69h5.69l5.018,12.104l4.655-12.104h5.535
		l-7.5,18.57l8.276,19.76h-5.638L29.953,24.571z"/>
	<path fill="#FFFFFF" d="M49.923,5.432h-7.552V0.414h20.588v5.018h-7.552v33.312h-5.483V5.432z"/>
	<path fill="#FFFFFF" d="M75.168,23.898h-0.311h-3.724v14.846h-5.276V0.414h8.949c8.121,0,10.604,3.518,10.604,11.38
		c0,5.328-1.242,9.053-5.225,10.915l5.018,16.035h-5.535L75.168,23.898z M74.806,19.036c4.293,0,5.38-2.018,5.38-6.932
		c0-4.966-1.086-6.776-5.432-6.776h-3.621v13.708H74.806z"/>
	<path fill="#FFFFFF" d="M95.396,0.311h6.104l8.38,38.434h-5.535l-1.448-7.242h-9.104l-1.448,7.242h-5.276L95.396,0.311z
		 M101.759,26.588l-2.483-12.414l-0.931-5.173l-0.931,5.173l-2.483,12.414H101.759z"/>
	<path fill="#FFFFFF" d="M114.436,36.416c-3.259-3.155-3.466-8.845-3.466-16.862c0-7.863,0.207-13.449,3.207-16.656
		C115.832,1.139,118.418,0,122.143,0c3.724,0,6.311,1.139,7.966,2.846c3,3.207,3.259,8.845,3.259,16.708
		c0,8.069-0.258,13.759-3.466,16.862c-1.707,1.604-4.241,2.587-7.759,2.587S116.143,38.02,114.436,36.416z M127.885,19.657
		c0-10.656-0.517-14.484-5.742-14.484s-5.742,3.828-5.742,14.484c0,10.655,0.517,14.38,5.742,14.38S127.885,30.312,127.885,19.657z"
		/>
	<path fill="#FFFFFF" d="M146.458,23.898h-0.31h-3.725v14.846h-5.276V0.414h8.949c8.121,0,10.604,3.518,10.604,11.38
		c0,5.328-1.241,9.053-5.225,10.915l5.018,16.035h-5.534L146.458,23.898z M146.096,19.036c4.293,0,5.379-2.018,5.379-6.932
		c0-4.966-1.086-6.776-5.431-6.776h-3.621v13.708H146.096z"/>
	<path fill="#FFFFFF" d="M160.634,0.414h8.793c4.139,0,6.983,0.983,8.742,2.845c2.793,2.949,3.052,8.276,3.052,16.295
		c0,8.482-0.259,13.811-3.311,16.656c-1.759,1.706-4.552,2.534-8.587,2.534h-8.689V0.414z M169.479,34.037
		c5.897,0,6.259-3.052,6.259-14.432c0-11.174-0.413-14.277-6.362-14.277h-3.362v28.709H169.479z"/>
	<path fill="#FFFFFF" d="M185.258,0.414h5.38v38.33h-5.38V0.414z"/>
	<path fill="#FFFFFF" d="M195.709,0.414h5.586l7.553,19.967l1.862,4.966V0.414h4.965v38.33h-4.862l-8.38-21.726l-1.706-4.552v26.277
		h-5.018V0.414z"/>
	<path fill="#FFFFFF" d="M226.904,0.311h6.104l8.38,38.434h-5.535l-1.448-7.242H225.3l-1.449,7.242h-5.275L226.904,0.311z
		 M233.266,26.588l-2.483-12.414l-0.931-5.173l-0.932,5.173l-2.482,12.414H233.266z"/>
	<path fill="#FFFFFF" d="M253.597,23.898h-0.311h-3.725v14.846h-5.275V0.414h8.948c8.121,0,10.604,3.518,10.604,11.38
		c0,5.328-1.242,9.053-5.225,10.915l5.018,16.035h-5.535L253.597,23.898z M253.235,19.036c4.294,0,5.38-2.018,5.38-6.932
		c0-4.966-1.086-6.776-5.432-6.776h-3.621v13.708H253.235z"/>
	<path fill="#FFFFFF" d="M273.464,25.657l-8.742-25.243h5.69l5.793,17.742l5.845-17.742h5.535l-8.742,25.398v12.932h-5.379V25.657z"
		/>
</g>
</svg>
