<?xml version="1.0" encoding="utf-8"?>
<!-- Generator: Adobe Illustrator 20.0.0, SVG Export Plug-In . SVG Version: 6.00 Build 0)  -->
<svg version="1.1" id="Layer_1" xmlns="http://www.w3.org/2000/svg" xmlns:xlink="http://www.w3.org/1999/xlink" x="0px" y="0px"
	 viewBox="0 0 331.195 39.003" enable-background="new 0 0 331.195 39.003" xml:space="preserve">
<g>
	<path fill="#FFFFFF" d="M7.552,5.432H0V0.414h20.588v5.018h-7.552v33.312H7.552V5.432z"/>
	<path fill="#FFFFFF" d="M23.487,0.414h5.38v15.881h9.725V0.414h5.379v38.33h-5.379v-17.07h-9.725v17.07h-5.38V0.414z"/>
	<path fill="#FFFFFF" d="M48.732,0.414h16.915v5.018H54.112v11.225H65.13v5.018H54.112V33.83h11.535v4.914H48.732V0.414z"/>
	<path fill="#FFFFFF" d="M78.893,23.898h-0.311h-3.724v14.846h-5.276V0.414h8.949c8.121,0,10.604,3.518,10.604,11.38
		c0,5.328-1.242,9.053-5.225,10.915l5.018,16.035h-5.535L78.893,23.898z M78.53,19.036c4.293,0,5.38-2.018,5.38-6.932
		c0-4.966-1.086-6.776-5.432-6.776h-3.621v13.708H78.53z"/>
	<path fill="#FFFFFF" d="M93.068,0.414h16.915v5.018H98.448v11.225h11.018v5.018H98.448V33.83h11.535v4.914H93.068V0.414z"/>
	<path fill="#FFFFFF" d="M127.16,0.311h6.104l8.38,38.434h-5.535l-1.449-7.242h-9.104l-1.448,7.242h-5.276L127.16,0.311z
		 M133.523,26.588l-2.483-12.414l-0.931-5.173l-0.931,5.173l-2.483,12.414H133.523z"/>
	<path fill="#FFFFFF" d="M153.854,23.898h-0.311h-3.724v14.846h-5.276V0.414h8.949c8.121,0,10.604,3.518,10.604,11.38
		c0,5.328-1.242,9.053-5.225,10.915l5.018,16.035h-5.535L153.854,23.898z M153.492,19.036c4.293,0,5.38-2.018,5.38-6.932
		c0-4.966-1.086-6.776-5.432-6.776h-3.621v13.708H153.492z"/>
	<path fill="#FFFFFF" d="M168.03,0.414h16.915v5.018H173.41v11.225h11.018v5.018H173.41V33.83h11.535v4.914H168.03V0.414z"/>
	<path fill="#FFFFFF" d="M194.363,34.296l9.725-20.174c0.828-1.759,1.448-3.725,1.448-5.535c0-2.069-0.931-3.673-3.828-3.673
		c-2.121,0-3.931,0.466-5.535,1.19l-1.966-4.553C196.277,0.621,198.863,0,202.226,0c6.414,0,8.69,2.846,8.69,7.604
		c0,3.052-0.983,5.741-2.431,8.794l-8.535,17.639h10.863v4.707h-16.449V34.296z"/>
	<path fill="#FFFFFF" d="M217.798,5.432h-4.293V0.414h9.569v38.33h-5.276V5.432z"/>
	<path fill="#FFFFFF" d="M235.491,0.414h6.827l4.553,21.053l1.293,6.569l1.241-6.518l4.707-21.104h6.725v38.33h-5.121V12.312
		l-1.034,5.121l-4.604,21.312h-4.242l-4.604-21.312l-1.034-5.328v26.64h-4.707V0.414z"/>
	<path fill="#FFFFFF" d="M268.082,36.416c-3.259-3.155-3.466-8.845-3.466-16.862c0-7.863,0.207-13.449,3.207-16.656
		C269.479,1.139,272.065,0,275.789,0c3.725,0,6.312,1.139,7.967,2.846c3,3.207,3.259,8.845,3.259,16.708
		c0,8.069-0.259,13.759-3.466,16.862c-1.707,1.604-4.242,2.587-7.76,2.587C272.272,39.003,269.789,38.02,268.082,36.416z
		 M281.531,19.657c0-10.656-0.518-14.484-5.742-14.484c-5.224,0-5.741,3.828-5.741,14.484c0,10.655,0.518,14.38,5.741,14.38
		C281.014,34.037,281.531,30.312,281.531,19.657z"/>
	<path fill="#FFFFFF" d="M300.104,23.898h-0.311h-3.725v14.846h-5.275V0.414h8.948c8.121,0,10.604,3.518,10.604,11.38
		c0,5.328-1.241,9.053-5.225,10.915l5.018,16.035h-5.535L300.104,23.898z M299.742,19.036c4.294,0,5.38-2.018,5.38-6.932
		c0-4.966-1.086-6.776-5.432-6.776h-3.621v13.708H299.742z"/>
	<path fill="#FFFFFF" d="M314.281,0.414h16.914v5.018H319.66v11.225h11.019v5.018H319.66V33.83h11.535v4.914h-16.914V0.414z"/>
</g>
</svg>
