<?xml version="1.0" encoding="utf-8"?>
<!-- Generator: Adobe Illustrator 20.0.0, SVG Export Plug-In . SVG Version: 6.00 Build 0)  -->
<svg version="1.1" id="Layer_1" xmlns="http://www.w3.org/2000/svg" xmlns:xlink="http://www.w3.org/1999/xlink" x="0px" y="0px"
	 viewBox="0 0 140.031 19.48" enable-background="new 0 0 140.031 19.48" xml:space="preserve">
<g>
	<g>
		<path fill="#FFFFFF" d="M5.083,12.591H3.535v6.761H0V0.231h5.161c4.335,0,5.754,1.91,5.754,5.961c0,2.477-0.619,4.412-2.503,5.496
			l2.426,7.663h-3.69L5.083,12.591z M5.135,9.34c1.755,0,2.271-0.877,2.271-2.941c0-2.115-0.516-2.89-2.296-2.89H3.535V9.34H5.135z"
			/>
		<path fill="#FFFFFF" d="M14.24,0.231h9.444v3.354h-5.832v4.412h5.574v3.329h-5.574v4.747h5.832v3.277H14.24V0.231z"/>
		<path fill="#FFFFFF" d="M30.235,0.181h4.129l4.36,19.171h-3.741l-0.594-2.89h-4.335l-0.593,2.89h-3.535L30.235,0.181z
			 M33.642,13.211l-0.98-4.877l-0.438-2.503l-0.438,2.503l-0.98,4.877H33.642z"/>
		<path fill="#FFFFFF" d="M40.477,18.5l1.471-3.045c0.954,0.49,2.012,0.749,3.432,0.749c1.315,0,2.038-0.517,2.038-1.626
			c0-0.903-0.181-1.342-2.503-3.561c-2.477-2.4-3.845-3.381-3.845-6.167c0-2.478,1.265-4.825,5.264-4.825
			c1.884,0,3.097,0.181,4.361,0.594l-1.188,3.276c-0.723-0.258-1.961-0.464-3.096-0.464c-1.265,0-1.858,0.567-1.858,1.444
			c0,0.903,0.336,1.239,2.555,3.381c2.787,2.683,3.793,3.715,3.793,6.398c0,2.555-1.316,4.825-5.393,4.825
			C43.134,19.48,41.482,18.99,40.477,18.5z"/>
		<path fill="#FFFFFF" d="M55.284,18.01c-1.729-1.651-1.832-4.489-1.832-8.257c0-3.664,0.104-6.45,1.678-8.128
			C56.059,0.645,57.504,0,59.594,0c2.064,0,3.535,0.645,4.438,1.6c1.601,1.677,1.729,4.489,1.729,8.153
			c0,3.793-0.129,6.631-1.832,8.257C63,18.887,61.555,19.48,59.594,19.48C57.606,19.48,56.214,18.887,55.284,18.01z M62.045,9.856
			c0-4.877-0.232-6.373-2.451-6.373s-2.478,1.496-2.478,6.373c0,4.851,0.259,6.296,2.478,6.296S62.045,14.707,62.045,9.856z"/>
		<path fill="#FFFFFF" d="M69.009,0.231h3.716l3.122,7.689l0.98,2.528V0.231h3.354v19.12H76.93l-3.664-8.799l-0.902-2.296v11.095
			h-3.354V0.231z"/>
		<path fill="#FFFFFF" d="M83.068,18.5l1.471-3.045c0.955,0.49,2.013,0.749,3.432,0.749c1.316,0,2.039-0.517,2.039-1.626
			c0-0.903-0.181-1.342-2.503-3.561c-2.478-2.4-3.845-3.381-3.845-6.167c0-2.478,1.264-4.825,5.264-4.825
			c1.884,0,3.096,0.181,4.36,0.594L92.1,3.896c-0.723-0.258-1.961-0.464-3.097-0.464c-1.265,0-1.857,0.567-1.857,1.444
			c0,0.903,0.335,1.239,2.554,3.381c2.787,2.683,3.793,3.715,3.793,6.398c0,2.555-1.315,4.825-5.393,4.825
			C85.726,19.48,84.074,18.99,83.068,18.5z"/>
		<path fill="#FFFFFF" d="M101.694,0.231h9.366v3.354h-5.754v4.8h5.496v3.354h-5.496v7.611h-3.612V0.231z"/>
		<path fill="#FFFFFF" d="M115.393,18.01c-1.729-1.651-1.832-4.489-1.832-8.257c0-3.664,0.104-6.45,1.678-8.128
			C116.167,0.645,117.612,0,119.702,0c2.064,0,3.535,0.645,4.438,1.6c1.601,1.677,1.729,4.489,1.729,8.153
			c0,3.793-0.129,6.631-1.832,8.257c-0.929,0.877-2.374,1.471-4.335,1.471C117.715,19.48,116.322,18.887,115.393,18.01z
			 M122.153,9.856c0-4.877-0.232-6.373-2.451-6.373s-2.478,1.496-2.478,6.373c0,4.851,0.259,6.296,2.478,6.296
			S122.153,14.707,122.153,9.856z"/>
		<path fill="#FFFFFF" d="M134.2,12.591h-1.548v6.761h-3.535V0.231h5.16c4.335,0,5.754,1.91,5.754,5.961
			c0,2.477-0.619,4.412-2.503,5.496l2.426,7.663h-3.689L134.2,12.591z M134.252,9.34c1.755,0,2.271-0.877,2.271-2.941
			c0-2.115-0.516-2.89-2.297-2.89h-1.573V9.34H134.252z"/>
	</g>
</g>
</svg>
