<?xml version="1.0" encoding="utf-8"?>
<!-- Generator: Adobe Illustrator 20.0.0, SVG Export Plug-In . SVG Version: 6.00 Build 0)  -->
<svg version="1.1" id="Layer_1" xmlns="http://www.w3.org/2000/svg" xmlns:xlink="http://www.w3.org/1999/xlink" x="0px" y="0px"
	 viewBox="0 0 92.914 24.5" enable-background="new 0 0 92.914 24.5" xml:space="preserve">
<g>
	<g>
		<rect x="0.5" y="0.5" fill="none" stroke="#FFFFFF" stroke-miterlimit="10" width="91.914" height="23.5"/>
	</g>
	<g>
		<path fill="#FFFFFF" d="M15.104,6.32h1.568l2.897,9.65l2.849-9.65h1.552L20.354,18.26h-1.633L15.104,6.32z"/>
		<path fill="#FFFFFF" d="M25.44,6.32h1.553V18.18H25.44V6.32z"/>
		<path fill="#FFFFFF" d="M29.168,6.32h6.515v1.424h-4.994v3.602h4.738v1.408h-4.738v4.033h5.042v1.393h-6.562V6.32z"/>
		<path fill="#FFFFFF" d="M36.863,6.32h1.569l2.097,8.963L42.69,6.32h1.361l2.177,8.963l2.097-8.963h1.457L46.98,18.26h-1.505
			L43.33,9.457l-2.145,8.803h-1.504L36.863,6.32z"/>
		<path fill="#FFFFFF" d="M57.057,6.24h1.632l3.65,11.939h-1.569l-0.736-2.465h-4.386l-0.704,2.465h-1.537L57.057,6.24z
			 M59.634,14.307l-1.777-5.891l-1.793,5.891H59.634z"/>
		<path fill="#FFFFFF" d="M63.695,6.32h1.553v10.467h4.85v1.393h-6.402V6.32z"/>
		<path fill="#FFFFFF" d="M71.407,6.32h1.553v10.467h4.85v1.393h-6.403V6.32z"/>
	</g>
</g>
</svg>
